<?xml version="1.0" standalone="no"?>
<!DOCTYPE svg PUBLIC "-//W3C//DTD SVG 20010904//EN"
 "http://www.w3.org/TR/2001/REC-SVG-20010904/DTD/svg10.dtd">
<svg version="1.0" xmlns="http://www.w3.org/2000/svg"
 width="256.000000pt" height="256.000000pt" viewBox="0 0 256.000000 256.000000"
 preserveAspectRatio="xMidYMid meet">
<metadata>
Created by potrace 1.11, written by Peter Selinger 2001-2013
</metadata>
<g transform="translate(0.000000,256.000000) scale(0.100000,-0.100000)"
fill="#000000" stroke="none">
<path d="M0 1280 l0 -1280 1280 0 1280 0 0 1280 0 1280 -1280 0 -1280 0 0
-1280z m885 776 c10 -23 25 -37 46 -45 39 -14 69 -14 69 -1 0 5 14 25 31 45
62 70 152 35 178 -70 32 -129 -56 -248 -149 -200 -17 9 -38 32 -48 53 -9 20
-17 39 -19 40 -6 12 -76 -24 -98 -49 -24 -30 -25 -34 -25 -185 l0 -155 184 95
c101 53 190 96 199 96 8 0 111 -47 228 -105 118 -58 217 -105 221 -105 5 0 8
63 8 140 0 139 0 141 -24 150 -13 5 -27 14 -31 20 -3 5 0 52 9 103 8 50 18
113 22 140 l6 47 64 0 c58 0 64 -2 69 -22 3 -13 16 -76 29 -142 l24 -118 -29
-17 -29 -16 0 -173 0 -172 125 -63 c91 -45 127 -68 131 -83 7 -27 -39 -120
-67 -134 -17 -10 -35 -5 -105 29 l-84 40 0 -42 c0 -31 5 -45 20 -55 19 -12 20
-23 20 -320 0 -226 -3 -311 -12 -320 -16 -16 -150 -16 -166 0 -9 9 -12 94 -12
320 0 297 1 308 20 320 17 11 20 24 20 83 l0 70 -223 108 -222 108 -40 -16
c-22 -8 -109 -50 -194 -93 l-154 -78 -1 -415 -1 -414 -79 -3 c-48 -2 -83 1
-90 8 -8 8 -10 119 -7 371 2 197 -1 359 -5 359 -5 0 -24 -9 -42 -20 -63 -39
-82 -29 -131 65 -28 53 -17 68 95 126 l89 47 3 197 2 196 -22 -6 c-100 -31
-191 -81 -259 -142 -39 -36 -40 -36 -58 -17 -44 45 14 228 96 305 87 83 239
145 366 148 34 1 39 -2 52 -33z m493 -1033 c30 -23 57 -65 67 -105 7 -28 7
-28 -41 -28 l-49 0 3 -206 c2 -149 -1 -210 -9 -220 -9 -11 -29 -14 -73 -12
l-61 3 -3 218 -2 217 -45 0 c-49 0 -50 1 -34 51 14 41 34 65 74 91 40 25 133
21 173 -9z"/>
</g>
</svg>
